# xmcd CD database file
# Copyright (C) 1995-1998 Ti Kan
#
# Track frame offsets:
#	150
#	23045
#	42025
#	60025
#	79825
#	94443
#	111325
#	123473
#	143890
#	163425
#	182553
#	201085
#	218623
#
# Disc length: 2949 seconds
#
# Revision: 1
# Processed by: cddbd v1.4b41PL2 Copyright (c) Steve Scherf et al.
# Submitted via: CDex 1.40Beta2
#
DISCID=b10b830d
DTITLE=Pino Daniele - Dimmi cosa succede sulla terra
DYEAR=1997
DGENRE=Blues
TTITLE0=questo immenso
TTITLE1=canto do mar
TTITLE2=se domani pioverà
TTITLE3=the desert in my head
TTITLE4=star bene a metà
TTITLE5=non ho paura del mostro
TTITLE6=amici come prima
TTITLE7=scirocco d'africa
TTITLE8=la mia emozione più forte
TTITLE9=dubbi non ho
TTITLE10=che male c'è
TTITLE11=continueremo a navigare
TTITLE12=il pianeta delle parole
EXTD=YEAR: 1997 ID3G:   0
EXTT0=
EXTT1=
EXTT2=
EXTT3=
EXTT4=
EXTT5=
EXTT6=
EXTT7=
EXTT8=
EXTT9=
EXTT10=
EXTT11=
EXTT12=
PLAYORDER=
